<mxfile host="app.diagrams.net" modified="2021-10-30T14:00:25.230Z" agent="5.0 (Windows)" etag="A0OnTlGruMNICVpfAcCi" version="15.6.2" type="github" pages="4">
  <diagram id="B45VEeB7_PNRaiaeE9ng" name="UI / Funcional">
    <mxGraphModel dx="2062" dy="791" grid="1" gridSize="10" guides="1" tooltips="1" connect="1" arrows="1" fold="1" page="1" pageScale="1" pageWidth="827" pageHeight="1169" math="0" shadow="0">
      <root>
        <mxCell id="0" />
        <mxCell id="1" parent="0" />
        <mxCell id="hZwy68Us4qBSldcowbvE-1" value="Device" style="swimlane;" parent="1" vertex="1">
          <mxGeometry x="80" y="110" width="460" height="270" as="geometry" />
        </mxCell>
        <mxCell id="hZwy68Us4qBSldcowbvE-10" value="GIT&lt;br&gt;&lt;b&gt;Fetch &amp;amp; Get branch&lt;br&gt;&lt;/b&gt;" style="html=1;verticalAlign=middle;" parent="hZwy68Us4qBSldcowbvE-1" vertex="1">
          <mxGeometry x="30" y="40" width="110" height="50" as="geometry" />
        </mxCell>
        <mxCell id="hZwy68Us4qBSldcowbvE-11" value="Chrome&lt;br&gt;&lt;b&gt;Jira- My Work&lt;br&gt;&lt;/b&gt;" style="html=1;verticalAlign=middle;" parent="hZwy68Us4qBSldcowbvE-1" vertex="1">
          <mxGeometry x="334" y="40" width="110" height="50" as="geometry" />
        </mxCell>
        <mxCell id="hZwy68Us4qBSldcowbvE-12" value="Chrome&lt;br&gt;&lt;b&gt;Meet&lt;br&gt;&lt;/b&gt;" style="html=1;verticalAlign=middle;" parent="hZwy68Us4qBSldcowbvE-1" vertex="1">
          <mxGeometry x="334" y="200" width="110" height="50" as="geometry" />
        </mxCell>
        <mxCell id="hZwy68Us4qBSldcowbvE-13" value="Chrome&lt;br&gt;&lt;b&gt;GoCD&lt;br&gt;&lt;/b&gt;" style="html=1;verticalAlign=middle;" parent="hZwy68Us4qBSldcowbvE-1" vertex="1">
          <mxGeometry x="334" y="120" width="110" height="50" as="geometry" />
        </mxCell>
        <mxCell id="hZwy68Us4qBSldcowbvE-14" value="" style="sketch=0;outlineConnect=0;fontColor=#232F3E;gradientColor=none;fillColor=#232F3E;strokeColor=none;dashed=0;verticalLabelPosition=bottom;verticalAlign=top;align=center;html=1;fontSize=12;fontStyle=0;aspect=fixed;pointerEvents=1;shape=mxgraph.aws4.gear;" parent="hZwy68Us4qBSldcowbvE-1" vertex="1">
          <mxGeometry y="240" width="30" height="30" as="geometry" />
        </mxCell>
        <mxCell id="hZwy68Us4qBSldcowbvE-16" value="System&lt;br&gt;&lt;b&gt;Copy&lt;br&gt;&lt;/b&gt;" style="html=1;verticalAlign=middle;" parent="hZwy68Us4qBSldcowbvE-1" vertex="1">
          <mxGeometry x="30" y="200" width="110" height="50" as="geometry" />
        </mxCell>
        <mxCell id="hZwy68Us4qBSldcowbvE-17" value="System&lt;br&gt;&lt;b&gt;Paste&lt;/b&gt;" style="html=1;verticalAlign=middle;" parent="hZwy68Us4qBSldcowbvE-1" vertex="1">
          <mxGeometry x="180" y="200" width="110" height="50" as="geometry" />
        </mxCell>
        <mxCell id="hZwy68Us4qBSldcowbvE-18" value="&lt;div&gt;UC01: Botones simples&lt;/div&gt;" style="text;html=1;strokeColor=none;fillColor=none;align=center;verticalAlign=middle;whiteSpace=wrap;rounded=0;" parent="1" vertex="1">
          <mxGeometry x="600" y="110" width="220" height="30" as="geometry" />
        </mxCell>
        <mxCell id="hZwy68Us4qBSldcowbvE-19" value="&lt;div&gt;UC02: Botones que abran listas de funciones&lt;br&gt;&lt;/div&gt;" style="text;html=1;strokeColor=none;fillColor=none;align=center;verticalAlign=middle;whiteSpace=wrap;rounded=0;" parent="1" vertex="1">
          <mxGeometry x="600" y="150" width="220" height="30" as="geometry" />
        </mxCell>
      </root>
    </mxGraphModel>
  </diagram>
  <diagram id="qgYE8NDGjpLolSQGo4uT" name="Architecture">
    <mxGraphModel dx="2062" dy="791" grid="1" gridSize="10" guides="1" tooltips="1" connect="1" arrows="1" fold="1" page="1" pageScale="1" pageWidth="827" pageHeight="1169" math="0" shadow="0">
      <root>
        <mxCell id="yznTSF8DA-ejez9rujjh-0" />
        <mxCell id="yznTSF8DA-ejez9rujjh-1" parent="yznTSF8DA-ejez9rujjh-0" />
        <mxCell id="yznTSF8DA-ejez9rujjh-6" value="Commands" style="edgeStyle=orthogonalEdgeStyle;rounded=0;orthogonalLoop=1;jettySize=auto;html=1;startArrow=none;startFill=0;" parent="yznTSF8DA-ejez9rujjh-1" source="yznTSF8DA-ejez9rujjh-2" target="yznTSF8DA-ejez9rujjh-3" edge="1">
          <mxGeometry x="0.037" y="10" relative="1" as="geometry">
            <Array as="points">
              <mxPoint x="460" y="160" />
              <mxPoint x="460" y="160" />
            </Array>
            <mxPoint as="offset" />
          </mxGeometry>
        </mxCell>
        <mxCell id="yznTSF8DA-ejez9rujjh-7" value="Events" style="edgeStyle=orthogonalEdgeStyle;rounded=0;orthogonalLoop=1;jettySize=auto;html=1;startArrow=none;startFill=0;" parent="yznTSF8DA-ejez9rujjh-1" edge="1">
          <mxGeometry x="-0.037" y="12" relative="1" as="geometry">
            <mxPoint x="570" y="268" as="sourcePoint" />
            <mxPoint x="300" y="268" as="targetPoint" />
            <Array as="points">
              <mxPoint x="500" y="268" />
              <mxPoint x="500" y="268" />
            </Array>
            <mxPoint as="offset" />
          </mxGeometry>
        </mxCell>
        <mxCell id="yznTSF8DA-ejez9rujjh-4" value="" style="html=1;strokeWidth=1;shadow=0;dashed=0;shape=mxgraph.ios7.misc.bluetooth;fillColor=#007AFF;strokeColor=none;buttonText=;strokeColor2=#222222;fontColor=#222222;fontSize=8;verticalLabelPosition=bottom;verticalAlign=top;align=center;sketch=0;" parent="yznTSF8DA-ejez9rujjh-1" vertex="1">
          <mxGeometry x="400" y="180" width="76" height="70" as="geometry" />
        </mxCell>
        <mxCell id="yznTSF8DA-ejez9rujjh-13" value="" style="group" parent="yznTSF8DA-ejez9rujjh-1" vertex="1" connectable="0">
          <mxGeometry x="40" y="140" width="260" height="150" as="geometry" />
        </mxCell>
        <mxCell id="yznTSF8DA-ejez9rujjh-2" value="" style="verticalLabelPosition=bottom;verticalAlign=top;html=1;shadow=0;dashed=0;strokeWidth=1;shape=mxgraph.android.phone2;strokeColor=#c0c0c0;direction=south;" parent="yznTSF8DA-ejez9rujjh-13" vertex="1">
          <mxGeometry width="260" height="150" as="geometry" />
        </mxCell>
        <mxCell id="yznTSF8DA-ejez9rujjh-9" value="" style="shape=image;html=1;verticalAlign=top;verticalLabelPosition=bottom;labelBackgroundColor=#ffffff;imageAspect=0;aspect=fixed;image=https://cdn3.iconfinder.com/data/icons/logos-brands-3/24/logo_brand_brands_logos_android-128.png" parent="yznTSF8DA-ejez9rujjh-13" vertex="1">
          <mxGeometry x="91" y="32" width="78" height="78" as="geometry" />
        </mxCell>
        <mxCell id="yznTSF8DA-ejez9rujjh-14" value="" style="group" parent="yznTSF8DA-ejez9rujjh-1" vertex="1" connectable="0">
          <mxGeometry x="570" y="128.8" width="172.39999999999998" height="172.40000000000003" as="geometry" />
        </mxCell>
        <mxCell id="yznTSF8DA-ejez9rujjh-3" value="" style="points=[];aspect=fixed;html=1;align=center;shadow=0;dashed=0;image;image=img/lib/allied_telesis/computer_and_terminals/Personal_Computer_with_Server.svg;" parent="yznTSF8DA-ejez9rujjh-14" vertex="1">
          <mxGeometry width="172.4" height="172.4" as="geometry" />
        </mxCell>
        <mxCell id="yznTSF8DA-ejez9rujjh-10" value="" style="html=1;verticalLabelPosition=bottom;align=center;labelBackgroundColor=#ffffff;verticalAlign=top;strokeWidth=2;strokeColor=#0080F0;shadow=0;dashed=0;shape=mxgraph.ios7.icons.settings;" parent="yznTSF8DA-ejez9rujjh-14" vertex="1">
          <mxGeometry x="100" y="61.19999999999999" width="20" height="36" as="geometry" />
        </mxCell>
      </root>
    </mxGraphModel>
  </diagram>
  <diagram id="z4otOIRwb1HIQQQ8uCH9" name="Mobile client">
    <mxGraphModel dx="2062" dy="791" grid="1" gridSize="10" guides="1" tooltips="1" connect="1" arrows="1" fold="1" page="1" pageScale="1" pageWidth="827" pageHeight="1169" math="0" shadow="0">
      <root>
        <mxCell id="y-KNTVyknxbmP20dAHwO-0" />
        <mxCell id="y-KNTVyknxbmP20dAHwO-1" parent="y-KNTVyknxbmP20dAHwO-0" />
        <mxCell id="j8PWmNGGuIgJj5plk9f0-0" value="&lt;h1&gt;Mobile client&lt;br&gt;&lt;/h1&gt;&lt;p&gt;The mobile client will be the application that connects to remove desktop targets, receives their available commands, renders them in a visually appealing way, and sends execution requests.&lt;/p&gt;" style="text;html=1;strokeColor=none;fillColor=none;spacing=5;spacingTop=-20;whiteSpace=wrap;overflow=hidden;rounded=0;" parent="y-KNTVyknxbmP20dAHwO-1" vertex="1">
          <mxGeometry x="40" y="40" width="720" height="200" as="geometry" />
        </mxCell>
        <mxCell id="j8PWmNGGuIgJj5plk9f0-1" value="&lt;h1&gt;MVP Requirements&lt;br&gt;&lt;/h1&gt;&lt;ol&gt;&lt;li&gt;To be able to receive commands to be executed, and render their icons in a simple grid&lt;br&gt;&lt;/li&gt;&lt;li&gt;To be able to click on an icon to execute a command&lt;/li&gt;&lt;/ol&gt;" style="text;html=1;strokeColor=none;fillColor=none;spacing=5;spacingTop=-20;whiteSpace=wrap;overflow=hidden;rounded=0;" parent="y-KNTVyknxbmP20dAHwO-1" vertex="1">
          <mxGeometry x="40" y="240" width="730" height="120" as="geometry" />
        </mxCell>
        <mxCell id="8GE271Ah9wVU1JMssRSu-0" value="&lt;h1&gt;Technologies&lt;br&gt;&lt;/h1&gt;&lt;ul&gt;&lt;li&gt;Target platform: Android (minimum API TBD)&lt;br&gt;&lt;/li&gt;&lt;li&gt;Bluetooth connectivity (library TBD)&lt;/li&gt;&lt;/ul&gt;&lt;ol&gt;&lt;/ol&gt;" style="text;html=1;strokeColor=none;fillColor=none;spacing=5;spacingTop=-20;whiteSpace=wrap;overflow=hidden;rounded=0;" vertex="1" parent="y-KNTVyknxbmP20dAHwO-1">
          <mxGeometry x="40" y="400" width="730" height="120" as="geometry" />
        </mxCell>
      </root>
    </mxGraphModel>
  </diagram>
  <diagram id="sXvwM8xP-prR98uwChcA" name="Desktop target">
    <mxGraphModel dx="2062" dy="791" grid="1" gridSize="10" guides="1" tooltips="1" connect="1" arrows="1" fold="1" page="1" pageScale="1" pageWidth="827" pageHeight="1169" math="0" shadow="0">
      <root>
        <mxCell id="jfRZh784PYk2haIZx6Mm-0" />
        <mxCell id="jfRZh784PYk2haIZx6Mm-1" parent="jfRZh784PYk2haIZx6Mm-0" />
        <mxCell id="jfRZh784PYk2haIZx6Mm-2" value="&lt;h1&gt;Desktop target&lt;br&gt;&lt;/h1&gt;&lt;p&gt;The desktop target will be the application which declares and defines all actions allowed to be executed by the mobile clients that connect to it. This has the following advantages:&lt;/p&gt;&lt;ul&gt;&lt;li&gt;Better usability as the desktop client can have a better UI to handle command definition&lt;/li&gt;&lt;li&gt;We can tailor the commands to the target platform, e.g. change how a window is selected in Windows vs Linux vs MacOS&lt;/li&gt;&lt;li&gt;We can improve security as the only allowed commands in a target system will be the ones configured on it, not the ones set in a potentially hostile mobile client, which would allow for undesired remote code execution.&lt;br&gt;&lt;/li&gt;&lt;/ul&gt;" style="text;html=1;strokeColor=none;fillColor=none;spacing=5;spacingTop=-20;whiteSpace=wrap;overflow=hidden;rounded=0;" parent="jfRZh784PYk2haIZx6Mm-1" vertex="1">
          <mxGeometry x="40" y="40" width="720" height="240" as="geometry" />
        </mxCell>
        <mxCell id="-LwqtJBsbOWGIJa7YrEi-0" value="&lt;h1&gt;MVP Requirements&lt;br&gt;&lt;/h1&gt;&lt;ol&gt;&lt;li&gt;To be able to define commands to be executed&lt;/li&gt;&lt;li&gt;To be able to select an icon to represent the command&lt;/li&gt;&lt;li&gt;To be able to send the available command information to the mobile client through bluetooth&lt;/li&gt;&lt;li&gt;To be able to execute a command on request through bluetooth&lt;br&gt;&lt;/li&gt;&lt;/ol&gt;" style="text;html=1;strokeColor=none;fillColor=none;spacing=5;spacingTop=-20;whiteSpace=wrap;overflow=hidden;rounded=0;" parent="jfRZh784PYk2haIZx6Mm-1" vertex="1">
          <mxGeometry x="40" y="240" width="730" height="120" as="geometry" />
        </mxCell>
        <mxCell id="1jjtRXOIM2QPTbyN60Ex-0" value="&lt;h1&gt;Technologies&lt;br&gt;&lt;/h1&gt;&lt;ul&gt;&lt;li&gt;Java 11&lt;/li&gt;&lt;li&gt;C system calls&lt;br&gt;&lt;/li&gt;&lt;li&gt;Bluetooth connectivity (library TBD)&lt;/li&gt;&lt;li&gt;UI technology TBD (console-first as PoC)&lt;br&gt;&lt;/li&gt;&lt;/ul&gt;&lt;ol&gt;&lt;/ol&gt;" style="text;html=1;strokeColor=none;fillColor=none;spacing=5;spacingTop=-20;whiteSpace=wrap;overflow=hidden;rounded=0;" parent="jfRZh784PYk2haIZx6Mm-1" vertex="1">
          <mxGeometry x="40" y="400" width="730" height="120" as="geometry" />
        </mxCell>
      </root>
    </mxGraphModel>
  </diagram>
</mxfile>
